<?xml version="1.0" encoding="UTF-8" standalone="no"?>
<!-- Uploaded to: SVG Repo, www.svgrepo.com, Generator: SVG Repo Mixer Tools -->
<svg width="50px" height="50px" viewBox="0 0 70 130" version="1.1" xmlns="http://www.w3.org/2000/svg" xmlns:xlink="http://www.w3.org/1999/xlink" preserveAspectRatio="xMidYMid">
	<g>

		<path d="M44.137599,23.6490765 C33.8495827,23.6490765 27.8999812,28.2657157 25.0297111,31.4550794 C24.6886111,28.7074166 22.8762226,25.1423714 15.8027202,25.1423714 L0.442216706,25.1423714 L0.442216706,41.2196565 L6.73763387,41.2196565 C7.8033749,41.2196565 8.14604679,41.5591846 8.14604679,42.6233537 L8.14604679,116.035306 L26.4554149,116.035306 L26.4554149,88.4816559 C26.4554149,87.7381522 26.4412679,87.0433771 26.4224052,86.4209089 C29.2816721,89.0475361 34.7439878,92.6644537 43.2762036,92.6644537 C61.1721648,92.6644537 73.6844046,78.4781516 73.6844046,58.1599089 C73.6844046,37.5194288 61.8040643,23.6490765 44.137599,23.6490765 M40.4185087,76.7160636 C30.56119,76.7160636 26.0828771,67.2784394 26.0828771,58.5340185 C26.0828771,44.7611234 33.6153712,39.8521127 40.6621515,39.8521127 C49.3059715,39.8521127 55.1188186,47.3044405 55.1188186,58.4051236 C55.1188186,71.0635492 47.7293664,76.7160636 40.4185087,76.7160636" fill="#231F1F">

		</path>
		<path d="M44.137599,23.6490765 C33.8495827,23.6490765 27.8984094,28.2657157 25.0297111,31.4535075 C24.6870393,28.7074166 22.8762226,25.1423714 15.8027202,25.1423714 L0.442216706,25.1423714 L0.442216706,41.2196565 L6.73763387,41.2196565 C7.8033749,41.2196565 8.14604679,41.5591846 8.14604679,42.6217819 L8.14604679,83.5317761 C16.5603709,80.604918 25.1806125,77.7833765 33.9674744,75.0702953 C28.5868969,71.9909639 26.0828771,65.0715067 26.0828771,58.5324467 C26.0828771,44.7611234 33.6153712,39.8521127 40.6621515,39.8521127 C49.3059715,39.8521127 55.1188186,47.3044405 55.1188186,58.4051236 C55.1188186,63.0673477 54.1065218,66.7644316 52.4733287,69.5906888 C59.3126196,67.654121 66.2462239,65.7757131 73.2867166,63.9680403 C73.5146406,62.0927762 73.6844046,60.162496 73.6844046,58.1599089 C73.6844046,37.5194288 61.8040643,23.6490765 44.137599,23.6490765" fill="#3B3B3C">

		</path>

	</g>
</svg>