<svg xmlns="http://www.w3.org/2000/svg" viewBox="195.2 401.4 162.2 197.5">
    <g id="Icon">
        <g>
            <path id="Z" class="st1"
                  d="m349.5 573.2-19-124.8 8.1-42.3 18.8 126-7.9 41.1zm-2.6 5.2-130.7 20.5-21-128.4 132.2-20.2 19.5 128.1zm-30.1-14.1c0-.7-.1-1.4-.2-2.2-.3-1.8-1-3.4-2-4.6-1-1.2-2.4-2.2-4.2-2.8-1.8-.6-3.9-.9-6.4-.9-2.4 0-5.1.3-8.1.8l-34.9 6c.4-2.7 1.7-6.2 4.1-10.5 2.6-4.8 6.5-10.6 11.6-17.4 1.8-2.4 3.1-4.1 4-5.4.7-.8 1.6-2 2.8-3.6 8-10.5 12.9-19 14.8-25.7 1.1-3.8 1.7-7.6 2-11.5.1-1.1.1-2.1.1-3.1 0-2.8-.2-5.5-.7-8.2-.4-2.4-1-4.5-1.8-6.1-.8-1.6-1.8-2.9-3.1-3.6-1.4-.9-3.4-1.2-6-1.2-2.2 0-4.8.3-7.8.8l-40.4 6.9c-4.9.8-8.5 2.3-10.8 4.4-1.8 1.7-2.8 3.9-2.8 6.5 0 .7.1 1.4.2 2.1.6 3.4 2.4 5.9 5.2 7.2 1.7.8 3.8 1.1 6.2 1.1 1.6 0 3.4-.2 5.4-.5l33.8-5.7c.1.6.1 1.2.1 1.8 0 2.1-.4 4.2-1.1 6.2-1 2.8-3.5 6.8-7.5 11.9-1.1 1.4-2.9 3.5-5.2 6.5-9.1 11-15.6 20.4-19.6 28.3-2.8 5.4-4.7 10.7-5.8 15.9-.6 3-.9 6-.9 8.8 0 2 .2 4 .5 5.8.5 2.7 1.1 4.9 2 6.7.9 1.8 2 3.1 3.5 3.9 1.3.7 3.3 1 5.9 1 3.4 0 7.9-.5 13.7-1.5l36.6-6.3c6.5-1.1 11-2.7 13.6-4.8 2.2-1.9 3.3-4.3 3.2-7zM204.3 422.5l-6.7 33.3-2.3 11.3 132.1-20.2 8.7-45.5-131.8 21.1z"></path>
        </g>
    </g>
</svg>